# xmcd
#
# Track frame offsets:
#	150
#	11189
#	21618
#	34636
#	48261
#	58538
#	72655
#	89094
#	104421
#	119773
#	128976
#	140564
#	153695
#	163669
#	182078
#	193938
#	206413
#	220435
#	232912
#	245324
#	258105
#	270076
#	282396
#	291512
#	303667
#
# Disc length: 4175 seconds
#
# Revision: 0
# Processed by: cddbd v1.5.2PL0 Copyright (c) Steve Scherf et al.
# Submitted via: dBpowerAMP V4.0
#
DISCID=8b104d19
DTITLE=Various Artist - 100 Baladas romanticas - Vol 2
DYEAR=2003
DGENRE=Ballad
TTITLE0=Charles Aznavour - Je te donnerai
TTITLE1=Elvis Presley - Loving you
TTITLE2=Otis Redding - I've been loving you too long
TTITLE3=Conti - La lluvia
TTITLE4=Tom Jones - The closer I get to you
TTITLE5=Teen Boys - Oh mi señor
TTITLE6=Gene Pitney - Somethings gotten hold of my heart
TTITLE7=Tina - Comme le fleuve aime la mer
TTITLE8=The Association - Cherish
TTITLE9=Tom Jones - Daugther of darkness
TTITLE10=Phil Carmen - On my way in L.A.
TTITLE11=Ben E King - Stand by me
TTITLE12=Roy Orbison - Running scare
TTITLE13=Billie Davis - Nights in whyte satin
TTITLE14=Aaron Neville - Tell it like it is
TTITLE15=Sacha Distel - Il tiend le monde
TTITLE16=Jose Feliciano - Light my fire
TTITLE17=Tom Wilson - Young lover
TTITLE18=Elvis Presley - Love me tender
TTITLE19=Climax - Precious and few
TTITLE20=Cook - Something old something new
TTITLE21=Los Angeles - Monica
TTITLE22=Frank Sinatra - They didn't believe me
TTITLE23=Morton - Past present and future
TTITLE24=Al jarreau - Ain't not sunshine
EXTD=
EXTT0=
EXTT1=
EXTT2=
EXTT3=
EXTT4=
EXTT5=
EXTT6=
EXTT7=
EXTT8=
EXTT9=
EXTT10=
EXTT11=
EXTT12=
EXTT13=
EXTT14=
EXTT15=
EXTT16=
EXTT17=
EXTT18=
EXTT19=
EXTT20=
EXTT21=
EXTT22=
EXTT23=
EXTT24=
PLAYORDER=
